<?xml version="1.0" encoding="UTF-8"?>
<svg xmlns="http://www.w3.org/2000/svg" viewBox="0 0 100 100">
  <defs>
    <style>
      .cls-1 {
        fill: #b02125;
      }

      .cls-1, .cls-2, .cls-3, .cls-4, .cls-5, .cls-6, .cls-7, .cls-8, .cls-9, .cls-10 {
        stroke-width: 0px;
      }

      .cls-2 {
        fill: #a07263;
      }

      .cls-3 {
        fill: #ccae90;
      }

      .cls-4 {
        fill: #84453e;
      }

      .cls-11 {
        isolation: isolate;
      }

      .cls-5 {
        fill: #683131;
      }

      .cls-6 {
        fill: #fff;
      }

      .cls-7 {
        fill: #592531;
      }

      .cls-8 {
        fill: #ac867c;
      }

      .cls-9 {
        fill: #cf9225;
        mix-blend-mode: color-dodge;
        opacity: .3;
      }

      .cls-10 {
        fill: #cf2325;
      }
    </style>
  </defs>
  <g class="cls-11">
    <g id="_图层_1" data-name="图层 1">
      <g>
        <path class="cls-10" d="m44.57,38c.87-.64-2.19-2.43-6.03-.12-4.82,2.9-7.53,7.28-8.5,10.77-.96,3.49-.76,7.51-3.31,8.99-2.54,1.48-11.86,2.08-15.37,7.89-3.51,5.81.91,13.66,5.77,18.11,4.86,4.46,11.73,10.82,19.89,1.75,5.41-6.02,3.31-10.47,6.28-13.42,2.02-2,9.75-3.15,11.24-7.16,1.49-4.02.12-3.92-1.58-2.65-1.7,1.26-4.93,2.05-6.35.19-1.34-1.75-.41-5.5.12-6.46.53-.95-2.32-4.24-2.32-4.24,0,0-5.56,2.05-6.67-.76-1.43-3.63,3.2-10.26,6.81-12.89Z"/>
        <path class="cls-1" d="m17.14,83.64c-4.86-4.46-9.28-12.3-5.77-18.11,3.51-5.81,12.82-6.42,15.37-7.89,2.54-1.47,2.34-5.5,3.31-8.99.96-3.49,3.67-7.87,8.5-10.77,3.84-2.31,6.9-.51,6.03.12-.48.35-.98.78-1.48,1.26-12.83,7.06-9.98,10.99-13.49,17.86-3.01,5.88-12.61,4.09-15.91,10.96-2.99,8.03,5.45,18.22,14.34,19.51,2.54,0,6.35-.41,7.21-3.79,2.29-10.52,7.9-15.02,15.66-20.63.78-.24,1.51-.6,2.07-1.02,1.7-1.27,3.07-1.37,1.58,2.65-1.49,4.02-9.22,5.16-11.24,7.16-2.97,2.95-.87,7.41-6.28,13.42-8.16,9.07-15.04,2.71-19.89-1.75Z"/>
        <path class="cls-9" d="m14.53,68.93c-1.94.52-3.3,2.23-4.01,4.37-.7-2.68-.59-5.39.84-7.77,3.51-5.81,12.82-6.42,15.37-7.89,2.54-1.47,2.34-5.5,3.31-8.99.96-3.49,3.67-7.87,8.5-10.77,3.84-2.31,6.9-.51,6.03.12-3.32,2.43-7.51,8.24-7.03,11.98-.58.66-.94,1.38-.94,2.07-.04,15.24-11.47,13.94-22.06,16.87Z"/>
        <path class="cls-6" d="m36.17,53.75c.49-.94,7.76-.82,8.24,3.48.48,4.31.37,5.56,2.94,7.2,2.32,1.49,6.85-1.32,5.79.02-1.06,1.34-5.92,2.94-10.1,5.26-4.17,2.32-3.28,11.56-6.53,14.94-3.26,3.38-1.83-3.25-4.5-6.36-2.67-3.11-9.36-7.72-6.24-12.93,2.77-4.63,8.81-8.55,10.4-11.61Z"/>
        <g>
          <polygon class="cls-5" points="39.18 56.07 78.55 16.7 81.92 20.07 44.22 60.86 39.18 56.07"/>
          <path class="cls-8" d="m67.6,32.71c.31-.31.31-.81,0-1.12-.31-.31-.81-.31-1.12,0-.31.31-.31.81,0,1.12.31.31.81.31,1.12,0Z"/>
          <path class="cls-8" d="m48.85,52.15c.31-.31.31-.81,0-1.12-.31-.31-.81-.31-1.12,0-.31.31-.31.81,0,1.12.31.31.81.31,1.12,0Z"/>
          <path class="cls-8" d="m61.75,38.73c.31-.31.31-.81,0-1.12-.31-.31-.81-.31-1.12,0-.31.31-.31.81,0,1.12.31.31.81.31,1.12,0Z"/>
          <path class="cls-8" d="m55.71,43.05c.26-.26.26-.69,0-.95-.26-.26-.69-.27-.95,0-.26.26-.27.69,0,.95.26.26.69.27.95,0Z"/>
          <path class="cls-8" d="m57.46,45.19c.26-.26.26-.69,0-.95-.26-.26-.69-.27-.95,0-.26.26-.26.69,0,.95.26.26.69.27.95,0Z"/>
          <path class="cls-4" d="m45.2,59.8c-1.62-1.71-3.19-3.47-4.64-5.35l.84-.84c1.58,1.81,2.93,3.7,4.39,5.55l-.59.64Z"/>
          <path class="cls-4" d="m48.44,56.3c-1.59-1.64-3.17-3.32-4.64-5.04l.82-.82c1.4,1.8,3.03,3.38,4.62,4.99l-.8.86Z"/>
          <path class="cls-4" d="m52.81,51.57l-1,1.08c-1.44-1.68-2.9-3.34-4.41-4.95l.97-.97c1.58,1.43,3.03,3.12,4.44,4.83Z"/>
          <path class="cls-4" d="m55.14,49.05c-1.37-1.64-2.7-3.32-4.01-5.02l.81-.81c1.35,1.7,2.65,3.36,3.95,5.02l-.75.81Z"/>
          <path class="cls-4" d="m60.41,43.35c-1.35-1.51-2.71-3.02-3.93-4.6l.93-.93c1.13,1.7,2.38,3.28,3.66,4.82l-.65.71Z"/>
          <path class="cls-4" d="m65.57,37.76c-1.23-1.48-2.43-2.98-3.68-4.36l1.36-1.36c1.05,1.66,2.12,3.21,3.22,4.74l-.9.98Z"/>
          <path class="cls-4" d="m70.79,32.11c-1.09-1.46-2.2-2.88-3.37-4.18l.86-.86c1.23,1.37,2.23,2.85,3.19,4.3l-.68.74Z"/>
          <path class="cls-4" d="m75.78,26.72c-1.06-1.32-2.15-2.61-3.25-3.82l.78-.78c.97,1.28,2.07,2.57,3.16,3.85l-.69.75Z"/>
        </g>
        <path class="cls-5" d="m23.21,70.85c-.39-.86,2.65-2.57,3.5-2,.84.57,5.03,4.64,5.17,5.2.14.56-1.28,4.09-2.2,3.73-.92-.36-6.12-6.16-6.47-6.93Z"/>
        <path class="cls-5" d="m27.84,66.95c-.35-.68,1.76-2.42,2.44-1.93.68.49,4.6,4.34,4.75,4.78.15.44-1.1,2.92-1.83,2.59-.72-.33-5.04-4.81-5.36-5.43Z"/>
        <path class="cls-5" d="m31.32,63.5c-.46-.63.77-1.5,1.44-.93.67.57,4.06,4.13,4.29,4.52.23.39-.16,2.05-.81,1.59-.66-.46-4.5-4.6-4.91-5.17Z"/>
        <path class="cls-5" d="m36.09,58.52c-.46-.64.89-1.63,1.57-1.06.68.57,4.07,4.15,4.3,4.55.23.4-.33,2.1-1,1.65-.67-.45-4.45-4.55-4.87-5.13Z"/>
        <path class="cls-5" d="m24.07,82.76c.67-.67.68-1.76,0-2.43-.67-.67-1.76-.68-2.43,0-.67.67-.68,1.76,0,2.43.67.67,1.76.68,2.43,0Z"/>
        <path class="cls-7" d="m21.64,82.76c-.12-.12-.22-.27-.29-.41.11-.05.78-.7.89-.87.04.59.94.7,1.26.25.12.12.42.87.58,1.03-.67.67-1.76.67-2.43,0Z"/>
        <path class="cls-5" d="m29.71,84.75c.67-.67.68-1.76,0-2.43-.67-.67-1.76-.68-2.43,0-.67.67-.68,1.76,0,2.43.67.67,1.76.68,2.43,0Z"/>
        <path class="cls-7" d="m27.28,84.75c-.12-.12-.22-.26-.29-.41.11-.05.78-.7.89-.87.04.6.94.7,1.26.25.12.12.42.87.58,1.03-.67.67-1.76.67-2.43,0Z"/>
        <path class="cls-5" d="m37.33,79.41c.52-.51.52-1.35,0-1.87-.52-.52-1.35-.52-1.87,0-.52.51-.52,1.35,0,1.87.51.52,1.35.52,1.87,0Z"/>
        <path class="cls-7" d="m35.46,79.41c-.09-.1-.17-.2-.23-.32.09-.04.6-.54.69-.67.03.46.72.54.97.2.09.09.32.67.44.79-.52.51-1.36.51-1.87,0Z"/>
        <path class="cls-10" d="m76.16,20.42c-.15-2.7.47-3.5.47-3.5,0,0,9.99-5.99,11.8-4.66,1.81,1.33,2.25,3.76-.44,4.03-2.68.27-2.75-.5-4.17,2.03-1.42,2.54-1.47,3.53-2.9,4.22-1.86.89-2.43-.08-4.76-2.13Z"/>
        <path class="cls-5" d="m77.61,17.67c-.13-.2-.58-1.16-.59-1.75-.03-.09-.06-.18-.08-.27-.18.05-.36.1-.54.14-.5.1-.78-.69-.28-.86.27-.09.54-.21.8-.33.31-.15.54-.34.89-.36.39-.02.58.5.38.78-.17.25-.44.35-.72.45h0c.2.1.33.36.41.53.07.17.15.36.24.54h0c.04.05.07.11.08.16.07.12.14.24.23.35.5.59-.42,1.28-.83.63Z"/>
        <path class="cls-5" d="m80.86,15.86c-.09-.18-.16-.38-.23-.58-.02-.02-.04-.04-.05-.07-.09-.24-.17-.49-.22-.75-.03-.13-.06-.26-.09-.39-.01-.04-.02-.08-.03-.12-.04.01-.08.02-.11.03-.1.03-.18.07-.29.07-.02,0-.05,0-.07,0,0,0,0,0-.02,0-.21.04-.43-.18-.34-.4.14-.33.45-.46.75-.61.3-.14.6-.31.94-.32.52,0,.55.7.17.91-.13.07-.28.11-.44.15.06.09.12.19.16.29.12.26.18.53.28.79h0c.14.26.28.51.3.8.02.38-.56.53-.72.19Z"/>
        <path class="cls-5" d="m84.31,14.06c-.07-.02-.13-.06-.18-.11h0c-.2-.21-.24-.61-.29-.86-.06-.27-.18-.53-.24-.8-.16.06-.31.12-.48.14-.14.02-.3-.02-.38-.14-.01-.01-.02-.02-.03-.03-.06-.04-.09-.12-.06-.19-.04.11.02-.2.02-.18.03-.1.11-.17.19-.24.15-.13.37-.22.54-.32.32-.18.74-.45,1.12-.39.47.08.72.79.19,1-.1.04-.2.06-.31.08.09.14.15.3.21.47.06.17.11.34.16.52.05.16.14.34.16.51.02.2-.06.33-.17.42-.1.1-.25.15-.44.1Z"/>
        <path class="cls-5" d="m87.3,12.98c-.2-.6-.14-1.19-.18-1.81-.22.02-.42-.01-.63-.15-.25-.16-.2-.52.05-.65.19-.1.38-.13.59-.2.25-.08.49-.21.76-.17.49.06.67.75.18.98-.13.06-.26.09-.4.11.12.56.11,1.14.28,1.68.11.37-.52.57-.64.21Z"/>
        <g>
          <path class="cls-3" d="m79.15,17.44c-.07-.07-.23-.12-.3-.05l-53.6,53.6c-.07.07-.12.13-.05.2.07.07.23.12.3.05l53.6-53.6c.07-.07.12-.13.05-.2Z"/>
          <path class="cls-3" d="m82.25,15.52c-.07-.07-.19-.07-.26,0l-55.57,56.74c-.07.07-.07.18,0,.25.07.07.19.07.25,0L82.25,15.77c.07-.07.07-.18,0-.25Z"/>
          <path class="cls-3" d="m84.96,13.99c-.07-.07-.19-.07-.26,0l-56.94,59.68c-.07.07-.08.19,0,.25.07.07.19.07.25,0L84.96,14.24c.07-.07.06-.18,0-.25Z"/>
          <path class="cls-3" d="m87.16,13.07h0c-.07-.07-.19-.07-.25,0l-57.84,61.98c-.07.07-.06.18,0,.25h0c.07.07.19.07.25,0L87.16,13.32c.07-.07.06-.18,0-.25Z"/>
        </g>
        <path class="cls-2" d="m25.11,70.44c-.45.18-.93.29.08,1.35,1,1.06,3.93,4.69,4.41,4.33.48-.37.64-.58.4-.77-.24-.19-4.88-4.91-4.88-4.91Z"/>
        <path class="cls-2" d="m79.02,18.04c.38-.38.39-.98.03-1.35-.36-.37-.97-.36-1.35.02-.38.38-.39.98-.03,1.35.36.37.97.36,1.35-.02Z"/>
        <path class="cls-2" d="m82.12,16.28c.38-.38.4-.98.03-1.35-.36-.37-.97-.36-1.35.02-.38.38-.4.98-.03,1.35.36.37.97.36,1.35-.02Z"/>
        <path class="cls-2" d="m85.12,14.62c.38-.38.39-.98.03-1.35-.36-.37-.97-.36-1.35.02-.38.38-.39.98-.03,1.35.36.37.97.36,1.35-.02Z"/>
        <path class="cls-2" d="m87.82,13.94c.38-.38.39-.98.03-1.35-.36-.37-.97-.36-1.35.02-.38.38-.39.98-.03,1.35.36.37.97.36,1.35-.02Z"/>
      </g>
    </g>
  </g>
</svg>